<svg width="195" height="195" viewBox="0 0 195 195" fill="none" xmlns="http://www.w3.org/2000/svg">
<path d="M2 97.5C2 150.243 44.7568 193 97.5 193C150.243 193 193 150.243 193 97.5C193 44.7568 150.243 2 97.5 2C44.7568 2 2 44.7568 2 97.5Z" fill="url(#paint0_linear_262_82)" stroke="black" stroke-width="4"/>
<g filter="url(#filter0_d_262_82)">
<path d="M102.632 12.5287C100.706 7.28784 93.2938 7.28781 91.3681 12.5287L70.503 69.3155C70.3006 69.8664 69.8664 70.3006 69.3155 70.503L12.5287 91.3681C7.28784 93.2938 7.28781 100.706 12.5287 102.632L69.3155 123.497C69.8664 123.699 70.3006 124.134 70.503 124.684L91.3681 181.471C93.2938 186.712 100.706 186.712 102.632 181.471L123.497 124.684C123.699 124.134 124.134 123.699 124.684 123.497L181.471 102.632C186.712 100.706 186.712 93.2938 181.471 91.3681L124.684 70.503C124.134 70.3006 123.699 69.8664 123.497 69.3155L102.632 12.5287Z" fill="#273773" stroke="black" stroke-width="4"/>
<g filter="url(#filter1_d_262_82)">
<path fill-rule="evenodd" clip-rule="evenodd" d="M68.3636 121.016L13.2186 100.755C9.72466 99.4708 9.72466 94.5292 13.2186 93.2454L70.0054 72.3803C70.069 72.3569 70.1318 72.332 70.1938 72.3056C78.846 71.4654 88.0178 71 97.5001 71C106.525 71 115.269 71.4215 123.552 72.1864C123.695 72.2595 123.842 72.3243 123.995 72.3803L180.782 93.2454C184.276 94.5292 184.276 99.4708 180.782 100.755L125.677 121.002C121.55 119.94 117.73 117.733 114.64 114.645C105.119 105.128 89.7337 104.977 80.0272 114.305L79.5332 114.78C76.3735 117.817 72.5148 119.981 68.3636 121.016Z" fill="#13225B"/>
<path d="M68.3636 121.016L67.6739 122.894L68.2512 123.106L68.8479 122.957L68.3636 121.016ZM13.2186 100.755L12.5288 102.632H12.5288L13.2186 100.755ZM13.2186 93.2454L12.5288 91.3681H12.5288L13.2186 93.2454ZM70.0054 72.3803L69.3156 70.503V70.503L70.0054 72.3803ZM70.1938 72.3056L70.0005 70.315L69.6936 70.3448L69.4099 70.4656L70.1938 72.3056ZM123.552 72.1864L124.463 70.406L124.12 70.2303L123.736 70.1949L123.552 72.1864ZM123.995 72.3803L124.685 70.503V70.503L123.995 72.3803ZM180.782 93.2454L181.471 91.3681L180.782 93.2454ZM180.782 100.755L181.471 102.632L180.782 100.755ZM125.677 121.002L125.178 122.939L125.781 123.094L126.366 122.879L125.677 121.002ZM114.64 114.645L113.227 116.059L114.64 114.645ZM80.0272 114.305L78.6414 112.863L80.0272 114.305ZM79.5332 114.78L80.919 116.222L79.5332 114.78ZM69.0534 119.139L13.9084 98.8773L12.5288 102.632L67.6739 122.894L69.0534 119.139ZM13.9084 98.8773C12.1614 98.2354 12.1614 95.7646 13.9084 95.1227L12.5288 91.3681C7.28793 93.2938 7.2879 100.706 12.5288 102.632L13.9084 98.8773ZM13.9084 95.1227L70.6951 74.2576L69.3156 70.503L12.5288 91.3681L13.9084 95.1227ZM70.6951 74.2576C70.7905 74.2226 70.8847 74.1852 70.9777 74.1456L69.4099 70.4656C69.3789 70.4788 69.3475 70.4913 69.3156 70.503L70.6951 74.2576ZM97.5001 69C87.953 69 78.7166 69.4686 70.0005 70.315L70.3871 74.2963C78.9753 73.4622 88.0827 73 97.5001 73V69ZM123.736 70.1949C115.392 69.4243 106.587 69 97.5001 69V73C106.464 73 115.146 73.4186 123.368 74.1779L123.736 70.1949ZM122.641 73.9667C122.855 74.0764 123.077 74.1737 123.305 74.2576L124.685 70.503C124.608 70.475 124.534 70.4426 124.463 70.406L122.641 73.9667ZM123.305 74.2576L180.092 95.1227L181.471 91.3681L124.685 70.503L123.305 74.2576ZM180.092 95.1227C181.839 95.7646 181.839 98.2354 180.092 98.8773L181.471 102.632C186.712 100.706 186.712 93.2938 181.471 91.3681L180.092 95.1227ZM180.092 98.8773L124.987 119.124L126.366 122.879L181.471 102.632L180.092 98.8773ZM113.227 116.059C116.561 119.391 120.693 121.785 125.178 122.939L126.175 119.065C122.406 118.095 118.9 116.074 116.054 113.23L113.227 116.059ZM81.413 115.747C90.3344 107.174 104.475 107.313 113.227 116.059L116.054 113.23C105.762 102.944 89.1329 102.781 78.6414 112.863L81.413 115.747ZM80.919 116.222L81.413 115.747L78.6414 112.863L78.1474 113.338L80.919 116.222ZM68.8479 122.957C73.3504 121.833 77.5169 119.492 80.919 116.222L78.1474 113.338C75.2302 116.142 71.6793 118.128 67.8794 119.076L68.8479 122.957Z" fill="#FFCA6A"/>
</g>
<path d="M123.5 73.5L130.5 76L113.5 112L109 108.5L123.5 73.5Z" fill="#D9D9D9"/>
<path d="M134.5 78L137 79L118 115.5L116 114.5L134.5 78Z" fill="#D9D9D9"/>
<path d="M68.3636 121.016L67.6739 122.894L68.2512 123.106L68.8479 122.957L68.3636 121.016ZM13.2186 100.755L12.5288 102.632H12.5288L13.2186 100.755ZM13.2186 93.2454L12.5288 91.3681H12.5288L13.2186 93.2454ZM70.0054 72.3803L69.3156 70.503V70.503L70.0054 72.3803ZM70.1938 72.3056L70.0005 70.315L69.6936 70.3448L69.4099 70.4656L70.1938 72.3056ZM123.552 72.1864L124.463 70.406L124.12 70.2303L123.736 70.1949L123.552 72.1864ZM123.995 72.3803L123.305 74.2576V74.2576L123.995 72.3803ZM180.782 93.2454L181.471 91.3681L180.782 93.2454ZM180.782 100.755L180.092 98.8773V98.8773L180.782 100.755ZM125.677 121.002L125.178 122.939L125.781 123.094L126.366 122.879L125.677 121.002ZM114.64 114.645L116.054 113.23L114.64 114.645ZM80.0272 114.305L78.6414 112.863L80.0272 114.305ZM79.5332 114.78L80.919 116.222L79.5332 114.78ZM69.0534 119.139L13.9084 98.8773L12.5288 102.632L67.6739 122.894L69.0534 119.139ZM13.9084 98.8773C12.1614 98.2354 12.1614 95.7646 13.9084 95.1227L12.5288 91.3681C7.28793 93.2938 7.2879 100.706 12.5288 102.632L13.9084 98.8773ZM13.9084 95.1227L70.6951 74.2576L69.3156 70.503L12.5288 91.3681L13.9084 95.1227ZM70.6951 74.2576C70.7905 74.2226 70.8847 74.1852 70.9777 74.1456L69.4099 70.4656C69.3789 70.4788 69.3475 70.4913 69.3156 70.503L70.6951 74.2576ZM97.5001 69C87.953 69 78.7166 69.4686 70.0005 70.315L70.3871 74.2963C78.9753 73.4622 88.0827 73 97.5001 73V69ZM123.736 70.1949C115.392 69.4243 106.587 69 97.5001 69V73C106.464 73 115.146 73.4186 123.368 74.1779L123.736 70.1949ZM122.641 73.9667C122.855 74.0764 123.077 74.1737 123.305 74.2576L124.685 70.503C124.608 70.475 124.534 70.4426 124.463 70.406L122.641 73.9667ZM123.305 74.2576L180.092 95.1227L181.471 91.3681L124.685 70.503L123.305 74.2576ZM180.092 95.1227C181.839 95.7646 181.839 98.2354 180.092 98.8773L181.471 102.632C186.712 100.706 186.712 93.2938 181.471 91.3681L180.092 95.1227ZM180.092 98.8773L124.987 119.124L126.366 122.879L181.471 102.632L180.092 98.8773ZM113.227 116.059C116.561 119.391 120.693 121.785 125.178 122.939L126.175 119.065C122.406 118.095 118.9 116.074 116.054 113.23L113.227 116.059ZM81.413 115.747C90.3344 107.174 104.475 107.313 113.227 116.059L116.054 113.23C105.762 102.944 89.1329 102.781 78.6414 112.863L81.413 115.747ZM80.919 116.222L81.413 115.747L78.6414 112.863L78.1474 113.338L80.919 116.222ZM68.8479 122.957C73.3504 121.833 77.5169 119.492 80.919 116.222L78.1474 113.338C75.2302 116.142 71.6793 118.128 67.8794 119.076L68.8479 122.957Z" fill="#FFCA6A"/>
</g>
<defs>
<filter id="filter0_d_262_82" x="5.59814" y="5.59802" width="188.804" height="188.804" filterUnits="userSpaceOnUse" color-interpolation-filters="sRGB">
<feFlood flood-opacity="0" result="BackgroundImageFix"/>
<feColorMatrix in="SourceAlpha" type="matrix" values="0 0 0 0 0 0 0 0 0 0 0 0 0 0 0 0 0 0 127 0" result="hardAlpha"/>
<feOffset dx="3" dy="3"/>
<feGaussianBlur stdDeviation="2"/>
<feComposite in2="hardAlpha" operator="out"/>
<feColorMatrix type="matrix" values="0 0 0 0 0 0 0 0 0 0 0 0 0 0 0 0 0 0 0.33 0"/>
<feBlend mode="normal" in2="BackgroundImageFix" result="effect1_dropShadow_262_82"/>
<feBlend mode="normal" in="SourceGraphic" in2="effect1_dropShadow_262_82" result="shape"/>
</filter>
<filter id="filter1_d_262_82" x="4.59814" y="69" width="184.804" height="62.1058" filterUnits="userSpaceOnUse" color-interpolation-filters="sRGB">
<feFlood flood-opacity="0" result="BackgroundImageFix"/>
<feColorMatrix in="SourceAlpha" type="matrix" values="0 0 0 0 0 0 0 0 0 0 0 0 0 0 0 0 0 0 127 0" result="hardAlpha"/>
<feOffset dy="4"/>
<feGaussianBlur stdDeviation="2"/>
<feComposite in2="hardAlpha" operator="out"/>
<feColorMatrix type="matrix" values="0 0 0 0 0 0 0 0 0 0 0 0 0 0 0 0 0 0 0.25 0"/>
<feBlend mode="normal" in2="BackgroundImageFix" result="effect1_dropShadow_262_82"/>
<feBlend mode="normal" in="SourceGraphic" in2="effect1_dropShadow_262_82" result="shape"/>
</filter>
<linearGradient id="paint0_linear_262_82" x1="151.5" y1="160.5" x2="50" y2="21.5" gradientUnits="userSpaceOnUse">
<stop stop-color="#FFCA6A"/>
<stop offset="0.445" stop-color="#F8AD5B"/>
<stop offset="0.4451" stop-color="#F8AD5B"/>
<stop offset="0.680325" stop-color="#F8AD5B"/>
<stop offset="1" stop-color="#EF8848"/>
</linearGradient>
</defs>
</svg>
