<svg width="148" height="108" viewBox="0 0 148 108" fill="none" xmlns="http://www.w3.org/2000/svg">
<path fill-rule="evenodd" clip-rule="evenodd" d="M3.17932 73.9792C5.57467 67.697 9.2032 60.8671 13.5799 54.0071H23.1683C17.7105 61.9909 13.2949 69.9043 10.6544 76.8294C8.91896 81.3808 8.03667 85.2843 8.00115 88.3803C7.96597 91.4452 8.7497 93.3462 9.93631 94.5273C13.564 98.1381 17.2983 99.44 21.3522 99.5046C25.6238 99.5726 30.4074 98.2678 35.9755 96.2166C38.2625 95.3741 40.5939 94.4408 43.0332 93.4643C43.4213 93.3089 43.8121 93.1525 44.2059 92.9951C45.351 94.0267 46.4928 95.0218 47.628 95.9765C48.8123 96.9725 49.9973 97.9312 51.1788 98.846C49.961 99.3157 48.7458 99.7968 47.5302 100.282C47.0341 100.48 46.5369 100.679 46.0391 100.878C43.598 101.856 41.1425 102.839 38.7409 103.723C33.0041 105.837 27.0545 107.596 21.2248 107.504C15.1774 107.407 9.44232 105.323 4.2927 100.197C1.09065 97.0103 -0.049147 92.7178 0.00167998 88.2885C0.0521408 83.8903 1.26537 78.9988 3.17932 73.9792ZM65.7785 94.3185C68.5096 93.767 71.2472 93.428 74 93.3801V93.3731C76.7276 93.4205 79.4402 93.7543 82.1464 94.2976C84.7901 92.7627 87.6953 90.7269 90.7733 88.253C85.4818 86.6418 79.8639 85.4567 74 85.3721V85.3791C68.1107 85.4641 62.4694 86.6575 57.157 88.2777C60.2336 90.7511 63.1371 92.7856 65.7785 94.3185ZM100.28 95.9708C101.423 95.0101 102.574 94.0083 103.727 92.9697C104.136 93.1334 104.542 93.296 104.945 93.4575L104.946 93.4577L104.948 93.4586L104.949 93.4591L104.949 93.4593L104.951 93.4599C107.386 94.4356 109.714 95.3681 111.997 96.2099C117.561 98.2611 122.34 99.5655 126.607 99.4975C130.657 99.4329 134.387 98.1317 138.011 94.5213C139.197 93.3404 139.98 91.4389 139.945 88.3732C139.91 85.2767 139.028 81.3728 137.294 76.8213C134.656 69.8985 130.246 61.9881 124.795 54.0071H134.381C138.753 60.8651 142.377 67.6928 144.77 73.973C146.682 78.9926 147.894 83.8838 147.945 88.2815C147.996 92.71 146.857 97.002 143.657 100.189C138.511 105.315 132.779 107.4 126.735 107.496C120.909 107.589 114.963 105.829 109.23 103.716C106.83 102.831 104.377 101.848 101.938 100.871L101.107 100.538C100.982 100.488 100.856 100.438 100.731 100.388C100.636 100.35 100.542 100.312 100.448 100.274C99.2167 99.7829 97.9863 99.2954 96.7532 98.8198C97.9268 97.9112 99.1038 96.9594 100.28 95.9708Z" fill="#61DAFB"/>
<path fill-rule="evenodd" clip-rule="evenodd" d="M57.173 19.2611C62.4645 20.8723 68.0825 22.0575 73.9464 22.1421V22.135C79.8357 22.05 85.4771 20.8566 90.7894 19.2365C87.7128 16.7631 84.8094 14.7285 82.1679 13.1957C79.4368 13.7471 76.6992 14.0862 73.9464 14.134V14.1411C71.2188 14.0937 68.5061 13.7598 65.7998 13.2165C63.1562 14.7514 60.2509 16.7872 57.173 19.2611ZM51.1931 8.69428C50.0195 9.60295 48.8425 10.5547 47.6661 11.5433C46.5228 12.504 45.3728 13.5058 44.2195 14.5444C43.8103 14.3808 43.4043 14.2181 43.0013 14.0567L43.0007 14.0564L42.9986 14.0556L42.9982 14.0554C40.5618 13.0793 38.2332 12.1464 35.949 11.3043C30.3852 9.25309 25.6061 7.94867 21.3389 8.01669C17.2898 8.08123 13.5595 9.38244 9.93495 12.9928C8.74936 14.1738 7.96594 16.0753 8.00108 19.141C8.03659 22.2375 8.91832 26.1413 10.6524 30.6928C14.1129 39.7753 20.6242 50.5575 28.5344 60.969C36.4259 71.3559 45.547 81.1602 54.0643 88.3232C58.3253 91.9067 62.3561 94.762 65.9393 96.7019C69.3195 98.5318 72.001 99.3816 73.9463 99.4997V99.4927C75.8945 99.3745 78.579 98.5242 81.9621 96.6942C85.5483 94.7542 89.5823 91.8987 93.8467 88.3151C102.371 81.152 111.499 71.3476 119.396 60.9607C127.313 50.5492 133.829 39.7671 137.292 30.6848C139.027 26.1334 139.91 22.2299 139.945 19.1339C139.98 16.069 139.197 14.1679 138.01 12.9869C134.382 9.37609 130.648 8.07418 126.594 8.00961C122.323 7.94157 117.539 9.24634 111.971 11.2976C109.684 12.1401 107.352 13.0734 104.913 14.0499C104.525 14.2052 104.134 14.3617 103.741 14.519C102.595 13.4875 101.454 12.4923 100.318 11.5377C99.1341 10.5417 97.9491 9.58299 96.7676 8.66812C97.9854 8.19848 99.2006 7.71738 100.416 7.23226C100.912 7.03431 101.409 6.83524 101.907 6.63592C104.348 5.65855 106.804 4.67543 109.205 3.79073C114.942 1.67736 120.892 -0.0822254 126.722 0.010625C132.769 0.106947 138.504 2.19118 143.654 7.31679C146.856 10.5039 147.995 14.7963 147.945 19.2257C147.894 23.6239 146.681 28.5153 144.767 33.535C140.931 43.5949 133.933 55.0596 125.765 65.8028C117.577 76.5706 108.05 86.8288 98.9935 94.4397C94.4674 98.2432 89.9797 101.453 85.7684 103.731C81.7933 105.881 77.7321 107.385 73.9464 107.5V107.507C70.1621 107.392 66.1031 105.888 62.1307 103.737C57.9224 101.459 53.4379 98.2494 48.9152 94.4458C39.8652 86.8348 30.3453 76.5765 22.1644 65.8087C14.0021 55.0654 7.00943 43.6009 3.17667 33.5411C1.26421 28.5215 0.0520323 23.6304 0.00161768 19.2327C-0.0491632 14.8042 1.08945 10.5122 4.28916 7.32495C9.43521 2.19897 15.167 0.114052 21.2114 0.0177013C27.0378 -0.0751708 32.9837 1.68476 38.7162 3.79815C41.116 4.68287 43.5696 5.66601 46.0089 6.64337C46.5063 6.8427 47.0032 7.04178 47.4989 7.23974C48.7297 7.7313 49.96 8.21873 51.1931 8.69428Z" fill="#61DAFB"/>
<path fill-rule="evenodd" clip-rule="evenodd" d="M74 0.00708008C77.7843 0.121944 81.8434 1.6266 85.8157 3.7771C90.0241 6.05535 94.5085 9.26482 99.0312 13.0683C108.081 20.6793 117.601 30.9377 125.782 41.7055C128.849 45.7418 131.75 49.8799 134.381 54.0071H124.795C123.095 51.5174 121.293 49.0208 119.412 46.5452C111.52 36.1583 102.399 26.354 93.8821 19.191C89.6211 15.6075 85.5903 12.7522 82.0071 10.8123C78.6269 8.98238 75.9453 8.13252 74 8.01443V0.00708008ZM74 0.0141602C70.2142 0.129055 66.1531 1.63319 62.1779 3.78357C57.9667 6.06165 53.4789 9.27097 48.9529 13.0744C39.896 20.6853 30.3689 30.9436 22.1817 41.7114C19.1142 45.7458 16.2117 49.8819 13.5798 54.0071H23.1683C24.8684 51.5201 26.6697 49.0263 28.5499 46.5534C36.4475 36.1665 45.5757 26.3621 54.0996 19.199C58.364 15.6155 62.398 12.76 65.9843 10.82C69.3673 8.98993 72.0519 8.13961 74 8.02151V0.0141602Z" fill="#61DAFB"/>
<path d="M89.0466 51.0071C90.132 51.0071 91.0085 51.8651 90.941 52.9485C90.596 58.4936 88.2848 74.0071 73.2237 74.0071C58.1192 74.0071 56.221 58.4042 56.0212 52.9009C55.9825 51.8351 56.8514 51.0071 57.9178 51.0071H73.2237H89.0466Z" fill="#61DAFB"/>
<ellipse cx="61.5" cy="40.0071" rx="5.5" ry="5" fill="#61DAFB"/>
<ellipse cx="85.5" cy="40.0071" rx="5.5" ry="5" fill="#61DAFB"/>
</svg>
